PathFileType	4	(X/Y/Z)	C:\Users\Biomechanik\SynologyDrive\AlexP\Athlete_03\Athlete_3_25_03_31\Squat_35kg_02\marker_experimental.trc
DataRate	CameraRate	NumFrames	NumMarkers	Units	OrigDataRate	OrigDataStartFrame	OrigNumFrames
200.000000	200.000000	4	55	mm	200.000000	463	530
Frame#	Time	BL			BR			GLAB			RFHD			LFHD			C7			T6			SPINMOL			SPINM2			SPINM3			T12			BELTOL			BELT2			BELT3			SACROL			SACR2			SACR3			LTHOL			LTH2			LTH3			LSHAOL			LSHA2			LSHA3			LHEE			LTOE			LM5			RTHOL			RTH2			RTH3			RSHAOL			RSHA2			RSHA3			RHEE			RTOE			RM5			STRN			XIPH			LACR			LUAOL			LUA2			LUA3			LLAOL			LLA2			LLA3			LWRR			LWRU			RACR			RUAOL			RUA2			RUA3			RLAOL			RLA2			RLA3			RWRR			RWRU			
		X1	Y1	Z1	X2	Y2	Z2	X3	Y3	Z3	X4	Y4	Z4	X5	Y5	Z5	X6	Y6	Z6	X7	Y7	Z7	X8	Y8	Z8	X9	Y9	Z9	X10	Y10	Z10	X11	Y11	Z11	X12	Y12	Z12	X13	Y13	Z13	X14	Y14	Z14	X15	Y15	Z15	X16	Y16	Z16	X17	Y17	Z17	X18	Y18	Z18	X19	Y19	Z19	X20	Y20	Z20	X21	Y21	Z21	X22	Y22	Z22	X23	Y23	Z23	X24	Y24	Z24	X25	Y25	Z25	X26	Y26	Z26	X27	Y27	Z27	X28	Y28	Z28	X29	Y29	Z29	X30	Y30	Z30	X31	Y31	Z31	X32	Y32	Z32	X33	Y33	Z33	X34	Y34	Z34	X35	Y35	Z35	X36	Y36	Z36	X37	Y37	Z37	X38	Y38	Z38	X39	Y39	Z39	X40	Y40	Z40	X41	Y41	Z41	X42	Y42	Z42	X43	Y43	Z43	X44	Y44	Z44	X45	Y45	Z45	X46	Y46	Z46	X47	Y47	Z47	X48	Y48	Z48	X49	Y49	Z49	X50	Y50	Z50	X51	Y51	Z51	X52	Y52	Z52	X53	Y53	Z53	X54	Y54	Z54	X55	Y55	Z55	

464	2.315	193.0102996826172	1336.193237304688	-2208.326904296875	152.7886810302734	1356.850341796875	-188.1761779785155	433.1526489257812	1561.735107421875	-1169.425048828125	379.8624267578125	1582.493896484375	-1106.788696289062	387.5640563964844	1579.886962890625	-1242.209838867188	210.9911499023438	1415.350952148438	-1175.387817382812	114.383659362793	1270.123779296875	-1187.52197265625	97.77896881103516	1239.735229492188	-1207.42919921875	86.59363555908203	1231.600463867188	-1159.095825195312	80.01898956298828	1177.095336914062	-1195.631713867188	73.37612152099609	1111.842041015625	-1198.09814453125	44.9879264831543	1087.7412109375	-1216.031005859375	41.9330940246582	1082.965698242188	-1165.994750976562	23.68497085571289	1027.621704101562	-1198.220947265625	-2.85579514503479	945.9921875000001	-1228.296630859375	-4.620117664337158	943.5894775390626	-1176.70751953125	-12.89629459381104	884.4315185546876	-1205.495483398438	81.72090911865234	675.6456298828126	-1420.200805664062	48.12590026855469	608.9497070312501	-1392.844482421875	88.74417877197266	614.3853149414064	-1421.785278320312	88.06111907958984	330.1315002441407	-1507.977905273438	52.93644714355469	259.2821655273439	-1498.932983398438	97.84796905517578	270.0996704101564	-1519.836791992188	75.08106994628906	67.23104858398446	-1489.602783203125	282.7611389160156	51.43456649780283	-1548.591674804688	215.2172698974609	23.42740821838389	-1635.486938476562	46.31703948974609	682.2113037109376	-989.7984619140625	96.09375	640.9616088867189	-942.5623168945312	61.47543334960938	624.3015136718751	-974.3502197265625	47.47985458374023	345.4299316406251	-892.694091796875	82.51316070556641	283.3797912597657	-859.4541015625	43.10592269897461	283.2109069824219	-889.8575439453125	52.89095306396484	61.66622924804693	-914.5010986328125	250.5037994384766	48.21724319458013	-833.8179321289062	168.2150726318359	35.23246765136724	-754.6190795898438	355.145263671875	1283.045043945312	-1176.317749023438	346.3220520019531	1137.416137695312	-1176.171875	256.3348999023438	1376.4560546875	-1342.353149414062	148.9009552001953	1266.387084960938	-1435.089721679688	103.7134857177734	1219.812133789062	-1424.176879882812	132.0884246826172	1211.565307617188	-1466.124755859375	109.5083160400391	1142.475830078125	-1536.299682617188	180.2906188964844	1144.43017578125	-1570.12109375	150.3530426025391	1182.524169921875	-1559.05224609375	196.5645141601562	1268.617065429688	-1592.81640625	213.2211608886719	1291.56298828125	-1518.519287109375	256.8265991210938	1373.449096679688	-1016.974182128906	148.5809631347656	1266.153076171875	-938.4645996093749	120.5608901977539	1213.599975585938	-909.3444824218749	102.138671875	1223.05029296875	-957.0960083007811	105.7282104492188	1142.540771484375	-822.2129516601561	108.5818786621094	1221.766235351562	-810.4348754882811	140.8764953613281	1186.304443359375	-795.9790649414061	173.0743103027344	1271.256591796875	-772.1563110351561	204.3944549560547	1302.011962890625	-839.8557128906249	
465	2.32	192.8448486328125	1335.932250976563	-2208.431884765625	152.4510803222656	1356.572387695312	-188.2863616943359	432.9882202148438	1561.843383789062	-1169.457885742188	379.6554870605469	1582.59423828125	-1106.849609375	387.4060363769531	1579.988647460938	-1242.250366210938	210.8261260986328	1415.2275390625	-1175.504150390625	114.388671875	1270.127563476562	-1187.612915039062	97.79842376708984	1239.751831054688	-1207.511596679688	86.61282348632812	1231.602783203125	-1159.181884765625	80.05108642578125	1177.104736328125	-1195.725219726562	73.41960144042969	1111.805053710938	-1198.195434570312	45.1445426940918	1087.641845703125	-1216.125732421875	42.07134628295898	1082.850463867188	-1166.096801757812	23.89192771911621	1027.502197265625	-1198.333129882812	-2.567447185516357	945.9422607421876	-1228.460815429688	-4.340975284576416	943.5340576171876	-1176.873657226562	-12.61680698394775	884.3780517578126	-1205.669921875	82.04770660400391	675.7351074218751	-1420.45361328125	48.26528167724609	609.0945434570314	-1393.1474609375	88.97374725341797	614.4476928710939	-1421.987915039062	88.05058288574219	330.1332397460939	-1508.023193359375	52.89300155639648	259.2903442382814	-1499.030883789062	97.83079528808594	270.0987854003907	-1519.886108398438	75.02006530761719	67.18894958496102	-1489.672485351562	282.7432556152344	51.42970657348642	-1548.60888671875	215.21240234375	23.41852569580088	-1635.495849609375	46.39879989624023	682.2934570312501	-989.973876953125	96.13084411621094	640.9116210937501	-942.8268432617188	61.44087219238281	624.3474731445314	-974.5971069335938	47.16694641113281	345.3565979003907	-892.97509765625	82.22625732421875	283.3747558593751	-859.6357421875	42.85066604614258	283.1355895996094	-890.0755004882812	52.8919792175293	61.64966583251959	-914.5196533203125	250.5093078613281	48.21556854248052	-833.8273315429688	168.2158050537109	35.23458099365239	-754.6198120117188	355.1357421875	1283.14208984375	-1176.434326171875	346.4835510253906	1137.524536132812	-1176.249145507812	256.1332397460938	1376.392456054688	-1342.472778320312	148.7708587646484	1266.248657226562	-1435.114013671875	103.5765762329102	1219.676147460938	-1424.18798828125	131.9255523681641	1211.434692382812	-1466.156127929688	109.3478240966797	1142.296752929688	-1536.299560546875	180.1283264160156	1144.22802734375	-1570.142333984375	150.1845397949219	1182.334228515625	-1559.080932617188	196.4003295898438	1268.41162109375	-1592.893798828125	213.0540161132812	1291.394165039062	-1518.6083984375	256.6415405273438	1373.449462890625	-1017.074462890625	148.6054992675781	1265.947631835938	-938.5531005859374	120.6354217529297	1213.365112304688	-909.4567260742186	102.20361328125	1222.8134765625	-957.2001953124999	105.8520050048828	1142.235717773438	-822.3715820312499	108.5580215454102	1221.445556640625	-810.5602416992186	140.8883209228516	1186.044555664062	-796.1307373046874	172.9582977294922	1271.046997070312	-772.2536621093749	204.2557830810547	1301.873046875	-839.9313964843749	
466	2.325	192.6857452392578	1335.708129882813	-2208.536865234375	152.1128845214844	1356.322021484375	-188.3963928222655	432.8271179199219	1561.951171875	-1169.494506835938	379.4539184570312	1582.69873046875	-1106.91357421875	387.2571411132812	1580.09423828125	-1242.296997070312	210.65771484375	1415.121826171875	-1175.623413085938	114.3925933837891	1270.124633789062	-1187.700317382812	97.81906127929688	1239.760986328125	-1207.588989257812	86.63555908203125	1231.597045898438	-1159.264282226562	80.09111022949219	1177.10498046875	-1195.813354492188	73.46600341796875	1111.770629882812	-1198.286987304688	45.30883026123047	1087.550170898438	-1216.215209960938	42.2208366394043	1082.742431640625	-1166.1953125	24.10191535949707	1027.391357421875	-1198.443115234375	-2.281256437301636	945.8832397460939	-1228.617065429688	-4.058365345001221	943.4684448242189	-1177.032348632812	-12.33666229248047	884.3148803710939	-1205.836791992188	82.37983703613281	675.8191528320314	-1420.706787109375	48.40728378295898	609.2379760742189	-1393.448608398438	89.20603179931641	614.5077514648439	-1422.190185546875	88.04440307617188	330.1340637207032	-1508.060424804688	52.8591194152832	259.2955017089845	-1499.114624023438	97.82006072998047	270.0963439941407	-1519.927368164062	74.96244812011719	67.14937591552743	-1489.735961914062	282.728759765625	51.4233283996583	-1548.619995117188	215.2091674804688	23.41431045532237	-1635.500732421875	46.48828506469727	682.3758544921876	-990.1255493164062	96.184326171875	640.8564453125001	-943.0840454101562	61.41252136230469	624.3923950195314	-974.827880859375	46.85224533081055	345.2825012207032	-893.250244140625	81.94364929199219	283.3682250976563	-859.8202514648438	42.59364700317383	283.0596618652344	-890.2879638671875	52.89257431030273	61.63190460205084	-914.5380249023438	250.514892578125	48.21371078491216	-833.837890625	168.2170257568359	35.23771286010747	-754.6217041015625	355.1203002929688	1283.256469726562	-1176.553100585938	346.644287109375	1137.64892578125	-1176.328247070312	255.9305877685547	1376.336791992188	-1342.593994140625	148.6263580322266	1266.12255859375	-1435.143798828125	103.4355545043945	1219.549072265625	-1424.201171875	131.7557067871094	1211.316040039062	-1466.191284179688	109.1861038208008	1142.135498046875	-1536.310668945312	179.9668121337891	1144.044799804688	-1570.177612304688	150.0146636962891	1182.163330078125	-1559.118286132812	196.2335662841797	1268.229370117188	-1592.971557617188	212.8867950439453	1291.241333007812	-1518.698364257812	256.4534912109375	1373.466430664062	-1017.181396484375	148.635986328125	1265.751708984375	-938.6387939453124	120.7238616943359	1213.14013671875	-909.5628662109374	102.2787704467773	1222.581787109375	-957.2994995117186	105.9971694946289	1141.943725585938	-822.5189819335936	108.5401382446289	1221.139526367188	-810.6799316406249	140.9218597412109	1185.802978515625	-796.2726440429686	172.8522033691406	1270.859375	-772.3482666015624	204.1230316162109	1301.753173828125	-840.0065307617186	
467	2.33	192.5337677001953	1335.521728515625	-2208.6416015625	151.7752990722656	1356.10009765625	-188.5059967041015	432.6679382324219	1562.059814453125	-1169.536743164062	379.2566833496094	1582.807983398438	-1106.9814453125	387.1151123046875	1580.203491210938	-1242.350341796875	210.4869232177734	1415.034423828125	-1175.7451171875	114.3943252563477	1270.1162109375	-1187.783569335938	97.83948516845703	1239.763549804688	-1207.661254882812	86.66011047363281	1231.583862304688	-1159.343139648438	80.13724517822266	1177.097412109375	-1195.895629882812	73.51361083984375	1111.73876953125	-1198.372314453125	45.4786262512207	1087.464965820312	-1216.299438476562	42.38029098510742	1082.641357421875	-1166.28955078125	24.31392097473145	1027.287719726562	-1198.550903320312	-1.995774388313293	945.8168334960939	-1228.76611328125	-3.772359848022461	943.3934326171876	-1177.184204101562	-12.05449199676514	884.2433471679689	-1205.997802734375	82.71454620361328	675.8985595703126	-1420.956787109375	48.5506706237793	609.3811035156251	-1393.742309570312	89.4385986328125	614.5661621093751	-1422.38818359375	88.03987884521484	330.1343078613282	-1508.088989257812	52.83258056640625	259.2976379394532	-1499.18310546875	97.81316375732422	270.0927734375001	-1519.959838867188	74.90849304199219	67.11241149902352	-1489.792846679688	282.71728515625	51.41570281982431	-1548.625244140625	215.2074127197266	23.41433715820322	-1635.501953125	46.586181640625	682.4588012695314	-990.2548217773438	96.25440979003906	640.7962036132814	-943.3348388671875	61.39127349853516	624.4360961914064	-975.0437622070312	46.53843307495117	345.2080078125001	-893.520263671875	81.66809844970703	283.3601379394532	-860.0091552734375	42.33705902099609	282.9834289550782	-890.4959106445312	52.89313125610352	61.61317062377935	-914.5567016601562	250.5206451416016	48.21152496337896	-833.849609375	168.2187805175781	35.24195480346685	-754.6248779296875	355.0982055664062	1283.386474609375	-1176.673461914062	346.8011474609375	1137.78759765625	-1176.4091796875	255.7284393310547	1376.289916992188	-1342.716064453125	148.4691925048828	1266.009765625	-1435.178833007812	103.2910842895508	1219.43212890625	-1424.21630859375	131.5800933837891	1211.210693359375	-1466.229736328125	109.0243530273438	1141.9931640625	-1536.33251953125	179.8062744140625	1143.88232421875	-1570.225708007812	149.844482421875	1182.013061523438	-1559.163940429688	196.0652770996094	1268.071655273438	-1593.049438476562	212.7202911376953	1291.10595703125	-1518.788940429688	256.2632751464844	1373.499633789062	-1017.294677734375	148.6711273193359	1265.567504882812	-938.7216186523436	120.8244857788086	1212.927001953125	-909.6631469726561	102.3622894287109	1222.357543945312	-957.3941040039061	106.1604385375977	1141.667358398438	-822.6552124023436	108.5281524658203	1220.850463867188	-810.7936401367186	140.9761047363281	1185.581420898438	-796.4041137695311	172.7552947998047	1270.694702148438	-772.4399414062499	203.9958953857422	1301.653198242188	-840.0809936523436	
